# xmcd
#
# Track frame offsets: 
#        150
#        9953
#        20532
#        31839
#        48236
#        61267
#        72432
#        88155
#        104543
#        118911
#        133198
#        153210
#
# Disc length: 2325 seconds
#
# Revision: 0
# Processed by: cddbd v1.5.2PL0 Copyright (c) Steve Scherf et al.
# Submitted via: ExactAudioCopyFreeDBPlugin 1.0
#
DISCID=9b09130c
DTITLE=Mutoid Man - War Moans
DYEAR=2017
DGENRE=
TTITLE0=Melt Your Mind
TTITLE1=Bone Chain
TTITLE2=Micro Aggression
TTITLE3=Kiss Of Death
TTITLE4=Date With The Devil
TTITLE5=Headrush
TTITLE6=Irons In The Fire
TTITLE7=War Moans
TTITLE8=Wreck And Survive
TTITLE9=Afterlife
TTITLE10=Open Flame
TTITLE11=Bandages
EXTD=
EXTT0=
EXTT1=
EXTT2=
EXTT3=
EXTT4=
EXTT5=
EXTT6=
EXTT7=
EXTT8=
EXTT9=
EXTT10=
EXTT11=
PLAYORDER=
